<?xml version="1.0"?>
<svg xmlns="http://www.w3.org/2000/svg" xmlns:xlink="http://www.w3.org/1999/xlink" xmlns:svgjs="http://svgjs.com/svgjs" version="1.1" width="512" height="512" x="0" y="0" viewBox="0 0 512 512" style="enable-background:new 0 0 512 512" xml:space="preserve" class=""><g><g xmlns="http://www.w3.org/2000/svg"><path d="m484.614 69.211h-67.699c-4.142 0-7.5 3.358-7.5 7.5s3.358 7.5 7.5 7.5h67.699c6.829 0 12.386 5.556 12.386 12.386v230.109h-482v-230.11c0-6.83 5.556-12.386 12.385-12.386h82.886v6.184c0 8.01 6.516 14.526 14.526 14.526h6.755v67.726h-29.264v-6.755c0-8.01-6.516-14.526-14.526-14.526h-28.51c-8.01 0-14.526 6.516-14.526 14.526v28.509c0 8.01 6.516 14.526 14.526 14.526h28.51c8.01 0 14.526-6.517 14.526-14.526v-6.754h64.121c-.721 3.77-1.118 7.627-1.139 11.547-.008 1.544.04 3.092.144 4.636-19.513 4.848-33.863 22.447-33.863 43.052 0 .517.009 1.032.026 1.547.74 21.355 18.426 38.084 40.264 38.084h168.315c20.198 0 36.833-14.315 39.804-33.363h44.42v6.755c0 8.01 6.517 14.526 14.526 14.526h28.509c8.01 0 14.526-6.516 14.526-14.526v-28.51c0-8.01-6.516-14.526-14.526-14.526h-28.509c-8.01 0-14.526 6.516-14.526 14.526v6.755h-44.813c-3.636-18.011-18.283-32.122-36.654-35.08-2.096-17.441-14.429-31.801-30.844-36.999v-22.758h46.169v6.755c0 8.01 6.516 14.526 14.526 14.526h28.51c8.01 0 14.526-6.516 14.526-14.526v-28.51c0-8.01-6.516-14.526-14.526-14.526h-28.51c-8.01 0-14.526 6.516-14.526 14.526v6.755h-46.168v-26.802h6.755c8.01 0 14.526-6.516 14.526-14.526v-2.775h53.565c4.142 0 7.5-3.358 7.5-7.5s-3.358-7.5-7.5-7.5h-53.565v-10.733c0-8.01-6.516-14.526-14.526-14.526h-28.51c-8.01 0-14.526 6.516-14.526 14.526v10.735h-107.956v-7.326c0-8.01-6.516-14.526-14.526-14.526h-28.51c-8.01 0-14.526 6.516-14.526 14.526v7.326h-82.886c-15.1 0-27.385 12.285-27.385 27.385v271.442c0 15.1 12.285 27.385 27.385 27.385h37.403c4.142 0 7.5-3.358 7.5-7.5s-3.358-7.5-7.5-7.5h-37.403c-6.829 0-12.385-5.556-12.385-12.385v-26.332h482v26.332c0 6.829-5.556 12.385-12.386 12.385h-389.826c-4.142 0-7.5 3.358-7.5 7.5s3.358 7.5 7.5 7.5h98.731l-7.934 57.626h-10.588c-4.142 0-7.5 3.358-7.5 7.5s3.358 7.5 7.5 7.5h162.005c4.142 0 7.5-3.358 7.5-7.5s-3.358-7.5-7.5-7.5h-10.588l-7.935-57.626h166.134c15.1 0 27.386-12.285 27.386-27.385v-271.442c.001-15.1-12.284-27.385-27.385-27.385zm-397.326 124.716h-27.561v-27.562h27.562v27.562zm352.093 37.942h27.562v27.562h-27.562zm-66.142-109.836h27.561v27.561h-27.561zm-45.01 86.326c0 .438-.015.872-.035 1.305-.091 2.045.657 4.039 2.072 5.519s3.374 2.317 5.421 2.317c.043 0 .089-.001.135-.001 16.344.05 29.626 13.212 29.626 29.384 0 .345-.006.688-.018 1.027-.451 13.015-11.788 23.604-25.272 23.604h-168.316c-13.484 0-24.821-10.588-25.273-23.601-.012-.342-.018-.686-.018-1.03 0-15.413 12.172-28.286 27.712-29.308 2.146-.141 4.128-1.197 5.443-2.898 1.315-1.702 1.836-3.886 1.431-5.998-.593-3.092-.885-6.255-.867-9.401.072-13.198 5.477-25.55 15.22-34.78 9.31-8.82 21.278-13.596 33.934-13.596.814 0 1.635.02 2.455.06 18.275.888 34.426 11.665 42.15 28.127.875 1.864 2.477 3.286 4.431 3.934 1.957.647 4.09.462 5.904-.51 4.312-2.313 9.203-3.536 14.146-3.536 16.388-.002 29.719 13.179 29.719 29.382zm-37.44-149.409h27.561v27.562h-27.561zm-122.956 31.445v-6.184h107.956v2.775c0 8.01 6.516 14.526 14.526 14.526h6.755v62.493c-4.402.142-8.763.923-12.914 2.316-11.002-17.867-30.164-29.305-51.548-30.343-17.43-.854-34.713 5.58-47.433 17.63-5.875 5.565-10.526 12.014-13.861 19.039h-24.761v-67.726h6.755c8.009 0 14.525-6.516 14.525-14.526zm-42.561-28.036h27.561v27.561h-27.561zm186.001 390.691h-110.547l7.935-57.626h94.678z" fill="#00bfd8" data-original="#000000" style="" class=""/></g></g></svg>
