<?xml version="1.0"?>
<svg xmlns="http://www.w3.org/2000/svg" xmlns:xlink="http://www.w3.org/1999/xlink" xmlns:svgjs="http://svgjs.com/svgjs" version="1.1" width="512" height="512" x="0" y="0" viewBox="0 0 64 64" style="enable-background:new 0 0 512 512" xml:space="preserve"><g><path xmlns="http://www.w3.org/2000/svg" d="m63 20c0-3.546-2.653-6.478-6.077-6.932.048-.352.077-.708.077-1.068 0-4.411-3.589-8-8-8-1.008 0-1.984.186-2.913.552-2.083-2.267-4.989-3.552-8.087-3.552-6.065 0-11 4.935-11 11 0 .531.042 1.073.125 1.619-2.467 1.118-4.125 3.625-4.125 6.381 0 .314.026.628.068.938l-1.664 1.024c-1.057.649-2.265.997-3.502 1.027 1.293-1.271 2.098-3.037 2.098-4.989 0-3.859-3.14-7-7-7s-7 3.141-7 7c0 2.047.889 3.886 2.294 5.167-4.149.8-7.294 4.454-7.294 8.833v4c0 2.757 2.243 5 5 5v18c0 2.206 1.794 4 4 4 1.2 0 2.266-.542 3-1.382.734.84 1.8 1.382 3 1.382 2.206 0 4-1.794 4-4v-18.351c.722-.346 1.303-.927 1.649-1.649h3.747c.472 0 .874.322.977.783l2.956 13.302c.19.854.586 1.61 1.128 2.226-1.442.606-2.457 2.03-2.457 3.689 0 2.206 1.794 4 4 4s4-1.794 4-4c0-.732-.212-1.409-.556-2h15.113c-.345.591-.557 1.268-.557 2 0 2.206 1.794 4 4 4s4-1.794 4-4c0-1.659-1.015-3.083-2.455-3.689.542-.616.938-1.373 1.128-2.226l1.304-5.868.023-4.217h-8.695c2.834-1.992 4.695-5.28 4.695-9 0-2.657-.947-5.097-2.521-7h4.521c3.86 0 7-3.141 7-7zm-34.446-4.786.896-.27-.21-.912c-.159-.689-.24-1.373-.24-2.032 0-4.963 4.038-9 9-9 2.749 0 5.312 1.237 7.034 3.396l.51.639.728-.373c.855-.439 1.773-.662 2.728-.662 3.309 0 6 2.691 6 6 0 2.306-1.346 4.434-3.429 5.423l.857 1.807c1.825-.866 3.212-2.395 3.958-4.21 2.539.202 4.614 2.357 4.614 4.98 0 2.757-2.243 5-5 5h-6.695c-1.787-1.256-3.959-2-6.305-2s-4.517.744-6.305 2h-6.582l5.362-3.47c.955-.618 1.525-1.666 1.525-2.802v-.39c0-1.841-1.498-3.338-3.338-3.338-.618 0-1.223.171-1.749.495l-6.891 4.241c.113-2.078 1.525-3.916 3.532-4.522zm-20.554 2.786c0-2.757 2.243-5 5-5s5 2.243 5 5-2.243 5-5 5-5-2.243-5-5zm8 43c-1.103 0-2-.897-2-2v-16h-2v16c0 1.103-.897 2-2 2s-2-.897-2-2v-18h10v18c0 1.103-.897 2-2 2zm2.5-22h-12.5c-1.654 0-3-1.346-3-3v-4c0-3.859 3.14-7 7-7h7.736c1.666 0 3.296-.462 4.716-1.335l10.508-6.467c.211-.13.454-.198.702-.198.737 0 1.338.601 1.338 1.338v.39c0 .456-.229.876-.611 1.124l-14.105 9.126c-1.43.925-2.284 2.495-2.284 4.198v.824h-12v2h12.5c.827 0 1.5.673 1.5 1.5s-.673 1.5-1.5 1.5zm10.635 4-.811-3.65c-.307-1.384-1.512-2.35-2.928-2.35h-3.432c-.169-1.178-.926-2.168-1.963-2.662v-1.162c0-1.021.512-1.964 1.371-2.519l6.285-4.067c.749.268 1.533.41 2.343.41h4.521c-1.574 1.903-2.521 4.343-2.521 7 0 3.72 1.861 7.008 4.695 9zm2.865 18c-1.103 0-2-.897-2-2s.897-2 2-2 2 .897 2 2-.897 2-2 2zm22 0c-1.103 0-2-.897-2-2s.897-2 2-2 2 .897 2 2-.897 2-2 2zm2-16v1.891l-1.28 5.761c-.307 1.382-1.512 2.348-2.928 2.348h-17.584c-1.417 0-2.621-.966-2.929-2.349l-1.699-7.651zm-13-2c-4.962 0-9-4.037-9-9s4.038-9 9-9 9 4.037 9 9-4.038 9-9 9z" fill="#00bfd8" data-original="#000000" style=""/><path xmlns="http://www.w3.org/2000/svg" d="m36 47h2v6h-2z" fill="#00bfd8" data-original="#000000" style=""/><path xmlns="http://www.w3.org/2000/svg" d="m42 47h2v6h-2z" fill="#00bfd8" data-original="#000000" style=""/><path xmlns="http://www.w3.org/2000/svg" d="m48 47h2v6h-2z" fill="#00bfd8" data-original="#000000" style=""/><path xmlns="http://www.w3.org/2000/svg" d="m43 31c.551 0 1 .448 1 1h2c0-1.302-.839-2.402-2-2.816v-2.184h-2v2h-2v3c0 1.654 1.346 3 3 3 .551 0 1 .448 1 1v1h-1c-.551 0-1-.448-1-1h-2c0 1.302.839 2.402 2 2.816v2.184h2v-2h2v-3c0-1.654-1.346-3-3-3-.551 0-1-.448-1-1v-1z" fill="#00bfd8" data-original="#000000" style=""/><path xmlns="http://www.w3.org/2000/svg" d="m38 7v-2c-3.86 0-7 3.141-7 7h2c0-2.757 2.243-5 5-5z" fill="#00bfd8" data-original="#000000" style=""/><path xmlns="http://www.w3.org/2000/svg" d="m51 12h2c0-2.206-1.794-4-4-4v2c1.103 0 2 .897 2 2z" fill="#00bfd8" data-original="#000000" style=""/><path xmlns="http://www.w3.org/2000/svg" d="m39 15h2v2h-2z" fill="#00bfd8" data-original="#000000" style=""/><path xmlns="http://www.w3.org/2000/svg" d="m43 15h2v2h-2z" fill="#00bfd8" data-original="#000000" style=""/><path xmlns="http://www.w3.org/2000/svg" d="m47 15h2v2h-2z" fill="#00bfd8" data-original="#000000" style=""/></g></svg>
