<?xml version="1.0"?>
<svg xmlns="http://www.w3.org/2000/svg" xmlns:xlink="http://www.w3.org/1999/xlink" xmlns:svgjs="http://svgjs.com/svgjs" version="1.1" width="512" height="512" x="0" y="0" viewBox="0 0 24 24" style="enable-background:new 0 0 512 512" xml:space="preserve" class=""><g><path xmlns="http://www.w3.org/2000/svg" d="m7.5 21h-5c-1.379 0-2.5-1.121-2.5-2.5v-16c0-1.379 1.121-2.5 2.5-2.5h11c1.379 0 2.5 1.121 2.5 2.5v7c0 .276-.224.5-.5.5s-.5-.224-.5-.5v-7c0-.827-.673-1.5-1.5-1.5h-11c-.827 0-1.5.673-1.5 1.5v16c0 .827.673 1.5 1.5 1.5h5c.276 0 .5.224.5.5s-.224.5-.5.5z" fill="#00bfd8" data-original="#000000" style="" class=""/><path xmlns="http://www.w3.org/2000/svg" d="m9.5 12c-.276 0-.5-.224-.5-.5v-6c0-.276.224-.5.5-.5h3c.276 0 .5.224.5.5v5c0 .276-.224.5-.5.5s-.5-.224-.5-.5v-4.5h-2v5.5c0 .276-.224.5-.5.5z" fill="#00bfd8" data-original="#000000" style="" class=""/><path xmlns="http://www.w3.org/2000/svg" d="m6.5 15h-3c-.276 0-.5-.224-.5-.5v-5c0-.276.224-.5.5-.5h3c.276 0 .5.224.5.5v5c0 .276-.224.5-.5.5zm-2.5-1h2v-4h-2z" fill="#00bfd8" data-original="#000000" style="" class=""/><path xmlns="http://www.w3.org/2000/svg" d="m7.5 15h-5c-.276 0-.5-.224-.5-.5s.224-.5.5-.5h5c.276 0 .5.224.5.5s-.224.5-.5.5z" fill="#00bfd8" data-original="#000000" style="" class=""/><path xmlns="http://www.w3.org/2000/svg" d="m17 24c-3.394 0-7-1.052-7-3 0-.276.224-.5.5-.5s.5.224.5.5c0 .835 2.282 2 6 2s6-1.165 6-2c0-.276.224-.5.5-.5s.5.224.5.5c0 1.948-3.606 3-7 3z" fill="#00bfd8" data-original="#000000" style="" class=""/><path xmlns="http://www.w3.org/2000/svg" d="m17 21c-3.394 0-7-1.052-7-3 0-.276.224-.5.5-.5s.5.224.5.5c0 .835 2.282 2 6 2s6-1.165 6-2c0-.276.224-.5.5-.5s.5.224.5.5c0 1.948-3.606 3-7 3z" fill="#00bfd8" data-original="#000000" style="" class=""/><path xmlns="http://www.w3.org/2000/svg" d="m17 18c-3.394 0-7-1.052-7-3s3.606-3 7-3 7 1.052 7 3-3.606 3-7 3zm0-5c-3.718 0-6 1.165-6 2s2.282 2 6 2 6-1.165 6-2-2.282-2-6-2z" fill="#00bfd8" data-original="#000000" style="" class=""/><path xmlns="http://www.w3.org/2000/svg" d="m10.5 21.5c-.276 0-.5-.224-.5-.5v-6c0-.276.224-.5.5-.5s.5.224.5.5v6c0 .276-.224.5-.5.5z" fill="#00bfd8" data-original="#000000" style="" class=""/><path xmlns="http://www.w3.org/2000/svg" d="m23.5 21.5c-.276 0-.5-.224-.5-.5v-6c0-.276.224-.5.5-.5s.5.224.5.5v6c0 .276-.224.5-.5.5z" fill="#00bfd8" data-original="#000000" style="" class=""/></g></svg>
